<?xml version="1.0" encoding="utf-8"?>
<!-- Generator: Adobe Illustrator 19.2.1, SVG Export Plug-In . SVG Version: 6.00 Build 0)  -->
<svg version="1.1" id="Layer_1" xmlns="http://www.w3.org/2000/svg" xmlns:xlink="http://www.w3.org/1999/xlink" x="0px" y="0px"
	 viewBox="0 0 283 104.29" style="enable-background:new 0 0 283 104.29;" xml:space="preserve">
<style type="text/css">
	.st0{fill:#FFFFFF;}
</style>
<g>
	<path class="st0" d="M119.02,28.99c-1.16,0.09-2.27,0.23-3.31,0.41l-10.2,35.38L95.13,29.4c-1.04-0.24-2.18-0.4-3.4-0.46
		c-1.23-0.06-2.45-0.09-3.67-0.09c-0.92,0-2.01,0.03-3.26,0.09c-1.26,0.06-2.62,0.24-4.09,0.55l17.74,47.33
		c1.04,0.24,2.14,0.4,3.31,0.46c1.16,0.06,2.2,0.09,3.13,0.09c0.86,0,1.93-0.03,3.21-0.09c1.29-0.06,2.51-0.18,3.68-0.37
		l18.01-47.42c-1.53-0.31-2.89-0.49-4.09-0.55c-1.19-0.06-2.25-0.09-3.17-0.09C121.35,28.85,120.18,28.9,119.02,28.99 M7.83,32.25
		c-3.34,2.63-5.01,6.28-5.01,10.93c0,3.86,0.97,6.75,2.9,8.68c1.93,1.93,4.61,3.38,8.04,4.37l5.7,1.66c1.59,0.49,2.83,1.05,3.72,1.7
		c0.89,0.64,1.33,1.7,1.33,3.17c0,1.04-0.29,1.88-0.88,2.53c-0.58,0.64-1.3,1.16-2.16,1.56c-0.86,0.4-1.79,0.67-2.8,0.83
		c-1.01,0.15-1.95,0.23-2.8,0.23c-1.96,0-3.85-0.2-5.65-0.6c-1.81-0.4-3.72-1-5.74-1.79c-0.74,1.6-1.33,3.23-1.79,4.92
		c-0.46,1.69-0.75,3.35-0.87,5.01c1.29,0.49,2.48,0.89,3.58,1.19c1.1,0.3,2.22,0.57,3.35,0.78c1.13,0.22,2.31,0.37,3.54,0.46
		c1.23,0.09,2.57,0.14,4.04,0.14c3.25,0,6.16-0.41,8.73-1.24c2.57-0.83,4.76-1.96,6.57-3.4c1.81-1.44,3.19-3.14,4.13-5.1
		c0.95-1.96,1.42-4.08,1.42-6.34c0-2.2-0.28-4.07-0.83-5.61c-0.55-1.53-1.32-2.82-2.3-3.86c-0.98-1.04-2.16-1.91-3.54-2.62
		c-1.38-0.7-2.93-1.3-4.64-1.79l-5.24-1.56c-1.53-0.49-2.71-1.01-3.54-1.56c-0.83-0.55-1.24-1.5-1.24-2.85
		c0-1.41,0.58-2.43,1.75-3.08c1.16-0.64,2.79-0.97,4.87-0.97c1.96,0,3.83,0.23,5.61,0.69c1.78,0.46,3.4,1,4.87,1.61
		c0.67-1.29,1.25-2.79,1.75-4.5c0.49-1.71,0.8-3.37,0.92-4.96c-2.39-0.86-4.75-1.5-7.07-1.93c-2.33-0.43-4.69-0.64-7.08-0.64
		C15.72,28.3,11.17,29.62,7.83,32.25 M60.01,67.77c-1.07-0.09-2.08-0.34-3.03-0.74c-0.95-0.4-1.76-1.03-2.43-1.88
		c-0.68-0.86-1-2.08-1-3.68c0-2.39,0.88-4.12,2.63-5.19c1.75-1.07,4.14-1.61,7.14-1.61c0.68,0,1.48,0.05,2.34,0.14
		c0.86,0.09,1.34,0.2,2.48,0.32v12.13c-0.57,0.12-1.56,0.26-2.48,0.41c-0.92,0.15-1.92,0.23-2.84,0.23
		C62.01,67.91,61.08,67.86,60.01,67.77 M52.79,28.95c-2.7,0.43-5.39,1.1-8.09,2.02c-0.19,1.99-0.02,4.01,0.41,5.42
		c0.43,1.41,1.14,2.76,2.17,4.14c3.73-1.29,7.26-1.93,10.57-1.93c1.53,0,2.94,0.09,4.19,0.28c1.26,0.18,2.33,0.54,3.19,1.06
		c0.85,0.52,1.57,1.24,2.06,2.16c0.49,0.92,0.82,2.11,0.82,3.58v1.1c-2.27-0.18-4.19-0.28-5.97-0.28c-2.45,0-4.99,0.26-7.44,0.78
		c-2.45,0.52-4.67,1.38-6.66,2.57c-1.99,1.19-3.61,2.79-4.87,4.78c-1.26,1.99-1.88,4.46-1.88,7.4c0,2.94,0.5,5.42,1.52,7.45
		c1.01,2.02,2.45,3.67,4.32,4.96c1.87,1.29,4.1,2.2,6.71,2.76c2.6,0.55,5.47,0.83,8.59,0.83c3.86,0,7.32-0.31,10.38-0.92
		c3.07-0.61,5.54-1.25,7.81-1.93V47.6c0-6.74-1.79-11.64-5.38-14.7c-3.58-3.06-8.56-4.59-14.93-4.59
		C58,28.3,55.49,28.52,52.79,28.95 M143.35,40.79c1.59-1.71,3.92-2.57,6.98-2.57c2.69,0,4.79,0.9,6.3,2.71
		c1.5,1.81,2.31,4.27,2.44,7.11H140.5C140.8,45.2,141.76,42.5,143.35,40.79 M140.55,30.28c-2.85,1.32-5.24,3.11-7.17,5.38
		c-1.93,2.27-3.39,4.93-4.36,7.99c-0.98,3.06-1.47,6.34-1.47,9.83c0,3.55,0.47,6.83,1.42,9.83c0.95,3,2.42,5.59,4.41,7.77
		c1.99,2.17,4.56,3.87,7.72,5.1c3.15,1.22,6.94,1.84,11.35,1.84c6,0,11.39-0.92,16.17-2.76c-0.06-1.96-0.33-3.8-0.82-5.51
		c-0.49-1.71-1.07-3.19-1.75-4.41c-1.96,0.74-4.03,1.3-6.2,1.7c-2.18,0.4-4.3,0.59-6.39,0.59c-3.8,0-6.86-0.83-9.19-2.49
		c-2.33-1.66-3.62-4.02-3.86-8h30.51c0.12-0.57,0.23-1.57,0.32-2.7c0.09-1.13,0.14-2.27,0.14-3.44c0-3.18-0.46-6.17-1.38-8.96
		c-0.92-2.79-2.28-5.19-4.09-7.21c-1.81-2.02-4-3.61-6.57-4.78c-2.57-1.16-5.51-1.75-8.82-1.75
		C146.71,28.3,143.39,28.96,140.55,30.28"/>
	<g>
		<path class="st0" d="M261.79,53.5c0-4.18-0.94-7.54-2.82-10.05c-1.88-2.52-4.67-3.78-8.37-3.78c-1.22,0-2.34,0.05-3.37,0.14
			c-1.03,0.09-1.88,0.2-2.55,0.32V64.6c0.85,0.55,1.96,1,3.32,1.36c1.37,0.36,2.74,0.55,4.14,0.55
			C258.57,66.51,261.79,62.18,261.79,53.5z"/>
		<path class="st0" d="M280.47,17.86L232.12,0.23c-0.85-0.31-1.79-0.31-2.64,0l-48.34,17.6c-1.52,0.55-2.54,2-2.54,3.62v78.91
			c0,2.68,2.66,4.54,5.18,3.62l47.34-17.28V30.85c1.21-0.36,2.61-0.71,4.19-1.05c1.58-0.33,3.23-0.62,4.96-0.86
			c1.73-0.24,3.49-0.44,5.28-0.59c1.79-0.15,3.5-0.23,5.14-0.23c3.94,0,7.46,0.59,10.56,1.77c3.09,1.18,5.7,2.85,7.82,5
			c2.12,2.15,3.74,4.78,4.87,7.87c1.12,3.09,1.68,6.55,1.68,10.37c0,3.7-0.45,7.07-1.36,10.1c-0.91,3.03-2.25,5.64-4,7.82
			c-1.76,2.18-3.94,3.88-6.55,5.09c-2.61,1.21-5.61,1.82-9.01,1.82c-1.88,0-3.64-0.18-5.28-0.55c-1.64-0.36-3.22-0.88-4.73-1.55
			v16.09l33.14,12.08c2.52,0.92,5.18-0.95,5.18-3.62V21.49C283,19.87,281.99,18.42,280.47,17.86z M225.42,75.41
			c-2.2,0.64-5.04,1.23-8.51,1.78c-3.48,0.55-7.12,0.82-10.94,0.82c-3.88,0-7.11-0.52-9.68-1.56c-2.58-1.04-4.62-2.5-6.12-4.39
			c-1.51-1.88-2.58-4.13-3.21-6.73c-0.64-2.61-0.96-5.47-0.96-8.6V30.52c0,0,3.37-0.53,6.62-0.53c3.25,0,6.32,0.53,6.32,0.53v24.66
			c0,4.17,0.55,7.18,1.65,9.03c1.1,1.85,3.15,2.78,6.17,2.78c0.93,0,1.91-0.04,2.95-0.13c1.04-0.09,1.97-0.19,2.78-0.3V30.52
			c0,0,3.04-0.53,6.51-0.53s6.44,0.53,6.44,0.53V75.41z"/>
	</g>
</g>
</svg>
